<mxfile host="app.diagrams.net" agent="Mozilla/5.0 (Windows NT 10.0; Win64; x64) AppleWebKit/537.36 (KHTML, like Gecko) Chrome/135.0.0.0 Safari/537.36" version="26.2.12">
  <diagram name="Página-1" id="o7IRmbSE2vMZOuGhMj5K">
    <mxGraphModel dx="2691" dy="2230" grid="1" gridSize="10" guides="1" tooltips="1" connect="1" arrows="1" fold="1" page="1" pageScale="1" pageWidth="827" pageHeight="1169" math="0" shadow="0">
      <root>
        <mxCell id="0" />
        <mxCell id="1" parent="0" />
        <mxCell id="pa-5nRJe8YoFxbNFvkeD-2" value="" style="whiteSpace=wrap;html=1;glass=1;shadow=1;rounded=0;" parent="1" vertex="1">
          <mxGeometry x="160" y="-1130" width="930" height="1337" as="geometry" />
        </mxCell>
        <mxCell id="pa-5nRJe8YoFxbNFvkeD-4" value="SISTEMA MASTERBIKES" style="text;html=1;align=center;verticalAlign=middle;whiteSpace=wrap;rounded=0;fontSize=22;shadow=1;sketch=1;curveFitting=1;jiggle=2;glass=1;" parent="1" vertex="1">
          <mxGeometry x="420" y="-1120" width="410" height="30" as="geometry" />
        </mxCell>
        <mxCell id="pa-5nRJe8YoFxbNFvkeD-6" value="Cliente" style="shape=umlActor;verticalLabelPosition=bottom;verticalAlign=top;html=1;outlineConnect=0;shadow=1;strokeWidth=5;perimeterSpacing=7;fontSize=16;" parent="1" vertex="1">
          <mxGeometry x="54" y="-752" width="36" height="70" as="geometry" />
        </mxCell>
        <mxCell id="pa-5nRJe8YoFxbNFvkeD-7" value="Técnico" style="shape=umlActor;verticalLabelPosition=bottom;verticalAlign=top;html=1;outlineConnect=0;shadow=1;strokeWidth=5;perimeterSpacing=7;fontSize=16;" parent="1" vertex="1">
          <mxGeometry x="54" y="-145" width="36" height="70" as="geometry" />
        </mxCell>
        <mxCell id="pa-5nRJe8YoFxbNFvkeD-8" value="Supervisor" style="shape=umlActor;verticalLabelPosition=bottom;verticalAlign=top;html=1;outlineConnect=0;shadow=1;strokeWidth=5;perimeterSpacing=7;fontSize=16;" parent="1" vertex="1">
          <mxGeometry x="1140" y="-785" width="36" height="70" as="geometry" />
        </mxCell>
        <mxCell id="pa-5nRJe8YoFxbNFvkeD-9" value="Vendedor" style="shape=umlActor;verticalLabelPosition=bottom;verticalAlign=top;html=1;outlineConnect=0;shadow=1;strokeWidth=5;perimeterSpacing=7;fontSize=16;" parent="1" vertex="1">
          <mxGeometry x="54" y="40" width="36" height="70" as="geometry" />
        </mxCell>
        <mxCell id="pa-5nRJe8YoFxbNFvkeD-10" value="Bodeguero" style="shape=umlActor;verticalLabelPosition=bottom;verticalAlign=top;html=1;outlineConnect=0;shadow=1;strokeWidth=5;perimeterSpacing=7;fontSize=16;" parent="1" vertex="1">
          <mxGeometry x="1140" y="-320" width="36" height="70" as="geometry" />
        </mxCell>
        <mxCell id="pa-5nRJe8YoFxbNFvkeD-13" value="Registrarse&lt;div&gt;(RF01)&lt;/div&gt;" style="ellipse;whiteSpace=wrap;html=1;" parent="1" vertex="1">
          <mxGeometry x="274" y="-1067" width="140" height="70" as="geometry" />
        </mxCell>
        <mxCell id="pa-5nRJe8YoFxbNFvkeD-14" value="Ver Promociones&lt;div&gt;(RF12)&lt;/div&gt;" style="ellipse;whiteSpace=wrap;html=1;" parent="1" vertex="1">
          <mxGeometry x="274" y="-967" width="140" height="70" as="geometry" />
        </mxCell>
        <mxCell id="pa-5nRJe8YoFxbNFvkeD-15" value="Solicitar Arriendo Bicicleta&lt;div&gt;(RF03)&lt;/div&gt;" style="ellipse;whiteSpace=wrap;html=1;" parent="1" vertex="1">
          <mxGeometry x="274" y="-867" width="140" height="70" as="geometry" />
        </mxCell>
        <mxCell id="pa-5nRJe8YoFxbNFvkeD-16" value="Solicitar Reparación Bicicleta&lt;div&gt;(RF04)&lt;/div&gt;" style="ellipse;whiteSpace=wrap;html=1;" parent="1" vertex="1">
          <mxGeometry x="274" y="-757" width="140" height="70" as="geometry" />
        </mxCell>
        <mxCell id="pa-5nRJe8YoFxbNFvkeD-19" value="Iniciar Sesión&lt;div&gt;(RF02)&lt;/div&gt;" style="ellipse;whiteSpace=wrap;html=1;" parent="1" vertex="1">
          <mxGeometry x="555" y="-320" width="140" height="70" as="geometry" />
        </mxCell>
        <mxCell id="pa-5nRJe8YoFxbNFvkeD-20" value="Seguir Despacho Productos&lt;div&gt;(RF07)&lt;/div&gt;" style="ellipse;whiteSpace=wrap;html=1;" parent="1" vertex="1">
          <mxGeometry x="274" y="-457" width="140" height="70" as="geometry" />
        </mxCell>
        <mxCell id="pa-5nRJe8YoFxbNFvkeD-21" value="Ver Historial Servicios&lt;div&gt;(RF08)&lt;/div&gt;" style="ellipse;whiteSpace=wrap;html=1;" parent="1" vertex="1">
          <mxGeometry x="274" y="-567" width="140" height="70" as="geometry" />
        </mxCell>
        <mxCell id="pa-5nRJe8YoFxbNFvkeD-22" value="Ver Estado Reparación&lt;div&gt;(RF06)&lt;/div&gt;" style="ellipse;whiteSpace=wrap;html=1;" parent="1" vertex="1">
          <mxGeometry x="274" y="-667" width="140" height="70" as="geometry" />
        </mxCell>
        <mxCell id="pa-5nRJe8YoFxbNFvkeD-23" value="Ver Solicitudes Reparación&lt;div&gt;(RF13)&lt;/div&gt;" style="ellipse;whiteSpace=wrap;html=1;" parent="1" vertex="1">
          <mxGeometry x="274" y="-215" width="140" height="70" as="geometry" />
        </mxCell>
        <mxCell id="pa-5nRJe8YoFxbNFvkeD-24" value="Consultar Stock Proveedor&lt;br&gt;(Servicio Externo SHIMANO)&lt;div&gt;(RF11)&lt;/div&gt;" style="ellipse;whiteSpace=wrap;html=1;" parent="1" vertex="1">
          <mxGeometry x="705" y="-200" width="190" height="70" as="geometry" />
        </mxCell>
        <mxCell id="pa-5nRJe8YoFxbNFvkeD-27" value="Enviar Promociones&lt;div&gt;(RF09)&lt;/div&gt;" style="ellipse;whiteSpace=wrap;html=1;" parent="1" vertex="1">
          <mxGeometry x="730" y="-687" width="140" height="70" as="geometry" />
        </mxCell>
        <mxCell id="pa-5nRJe8YoFxbNFvkeD-28" value="Consultar Stock Interno&lt;div&gt;(RF05)&lt;/div&gt;" style="ellipse;whiteSpace=wrap;html=1;" parent="1" vertex="1">
          <mxGeometry x="280" y="20" width="140" height="70" as="geometry" />
        </mxCell>
        <mxCell id="pa-5nRJe8YoFxbNFvkeD-29" value="Confirmar Posibilidad Reparación&lt;div&gt;(RF14)&lt;/div&gt;" style="ellipse;whiteSpace=wrap;html=1;" parent="1" vertex="1">
          <mxGeometry x="274" y="-100" width="140" height="70" as="geometry" />
        </mxCell>
        <mxCell id="pa-5nRJe8YoFxbNFvkeD-30" value="Generar Reportes&lt;div&gt;(RF10)&lt;/div&gt;" style="ellipse;whiteSpace=wrap;html=1;" parent="1" vertex="1">
          <mxGeometry x="730" y="-890" width="140" height="70" as="geometry" />
        </mxCell>
        <mxCell id="pa-5nRJe8YoFxbNFvkeD-35" value="" style="endArrow=open;endFill=1;endSize=12;html=1;rounded=0;exitX=0.5;exitY=0.5;exitDx=0;exitDy=0;exitPerimeter=0;entryX=0;entryY=0.5;entryDx=0;entryDy=0;" parent="1" source="pa-5nRJe8YoFxbNFvkeD-6" target="pa-5nRJe8YoFxbNFvkeD-13" edge="1">
          <mxGeometry width="160" relative="1" as="geometry">
            <mxPoint x="74" y="-977" as="sourcePoint" />
            <mxPoint x="234" y="-977" as="targetPoint" />
          </mxGeometry>
        </mxCell>
        <mxCell id="pa-5nRJe8YoFxbNFvkeD-36" value="" style="endArrow=open;endFill=1;endSize=12;html=1;rounded=0;exitX=0.5;exitY=0.5;exitDx=0;exitDy=0;exitPerimeter=0;entryX=0;entryY=0.5;entryDx=0;entryDy=0;" parent="1" source="pa-5nRJe8YoFxbNFvkeD-6" target="pa-5nRJe8YoFxbNFvkeD-14" edge="1">
          <mxGeometry width="160" relative="1" as="geometry">
            <mxPoint x="79" y="-887" as="sourcePoint" />
            <mxPoint x="284" y="-1022" as="targetPoint" />
          </mxGeometry>
        </mxCell>
        <mxCell id="pa-5nRJe8YoFxbNFvkeD-37" value="" style="endArrow=open;endFill=1;endSize=12;html=1;rounded=0;entryX=0;entryY=0.5;entryDx=0;entryDy=0;exitX=0.5;exitY=0.5;exitDx=0;exitDy=0;exitPerimeter=0;" parent="1" source="pa-5nRJe8YoFxbNFvkeD-6" target="pa-5nRJe8YoFxbNFvkeD-15" edge="1">
          <mxGeometry width="160" relative="1" as="geometry">
            <mxPoint x="69" y="-897" as="sourcePoint" />
            <mxPoint x="294" y="-1012" as="targetPoint" />
          </mxGeometry>
        </mxCell>
        <mxCell id="pa-5nRJe8YoFxbNFvkeD-38" value="" style="endArrow=open;endFill=1;endSize=12;html=1;rounded=0;exitX=0.5;exitY=0.5;exitDx=0;exitDy=0;exitPerimeter=0;entryX=0;entryY=0.5;entryDx=0;entryDy=0;" parent="1" source="pa-5nRJe8YoFxbNFvkeD-6" target="pa-5nRJe8YoFxbNFvkeD-16" edge="1">
          <mxGeometry width="160" relative="1" as="geometry">
            <mxPoint x="79" y="-887" as="sourcePoint" />
            <mxPoint x="284" y="-822" as="targetPoint" />
          </mxGeometry>
        </mxCell>
        <mxCell id="pa-5nRJe8YoFxbNFvkeD-39" value="" style="endArrow=open;endFill=1;endSize=12;html=1;rounded=0;exitX=0.5;exitY=0.5;exitDx=0;exitDy=0;exitPerimeter=0;entryX=0;entryY=0.5;entryDx=0;entryDy=0;" parent="1" source="pa-5nRJe8YoFxbNFvkeD-6" target="pa-5nRJe8YoFxbNFvkeD-22" edge="1">
          <mxGeometry width="160" relative="1" as="geometry">
            <mxPoint x="79" y="-887" as="sourcePoint" />
            <mxPoint x="284" y="-712" as="targetPoint" />
          </mxGeometry>
        </mxCell>
        <mxCell id="pa-5nRJe8YoFxbNFvkeD-40" value="" style="endArrow=open;endFill=1;endSize=12;html=1;rounded=0;exitX=0.5;exitY=0.5;exitDx=0;exitDy=0;exitPerimeter=0;entryX=0;entryY=0.5;entryDx=0;entryDy=0;" parent="1" source="pa-5nRJe8YoFxbNFvkeD-6" target="pa-5nRJe8YoFxbNFvkeD-21" edge="1">
          <mxGeometry width="160" relative="1" as="geometry">
            <mxPoint x="79" y="-887" as="sourcePoint" />
            <mxPoint x="284" y="-622" as="targetPoint" />
          </mxGeometry>
        </mxCell>
        <mxCell id="pa-5nRJe8YoFxbNFvkeD-41" value="" style="endArrow=open;endFill=1;endSize=12;html=1;rounded=0;exitX=0.5;exitY=0.5;exitDx=0;exitDy=0;exitPerimeter=0;entryX=0;entryY=0.5;entryDx=0;entryDy=0;" parent="1" source="pa-5nRJe8YoFxbNFvkeD-6" target="pa-5nRJe8YoFxbNFvkeD-20" edge="1">
          <mxGeometry width="160" relative="1" as="geometry">
            <mxPoint x="79" y="-887" as="sourcePoint" />
            <mxPoint x="284" y="-522" as="targetPoint" />
          </mxGeometry>
        </mxCell>
        <mxCell id="pa-5nRJe8YoFxbNFvkeD-42" value="" style="endArrow=open;endFill=1;endSize=12;html=1;rounded=0;entryX=0;entryY=0.5;entryDx=0;entryDy=0;exitX=0.5;exitY=0.5;exitDx=0;exitDy=0;exitPerimeter=0;" parent="1" source="pa-5nRJe8YoFxbNFvkeD-6" target="pa-5nRJe8YoFxbNFvkeD-19" edge="1">
          <mxGeometry width="160" relative="1" as="geometry">
            <mxPoint x="89" y="-877" as="sourcePoint" />
            <mxPoint x="294" y="-512" as="targetPoint" />
            <Array as="points">
              <mxPoint x="230" y="-285" />
            </Array>
          </mxGeometry>
        </mxCell>
        <mxCell id="pa-5nRJe8YoFxbNFvkeD-43" value="" style="endArrow=open;endFill=1;endSize=12;html=1;rounded=0;entryX=0;entryY=0.5;entryDx=0;entryDy=0;exitX=0.5;exitY=0.5;exitDx=0;exitDy=0;exitPerimeter=0;" parent="1" source="pa-5nRJe8YoFxbNFvkeD-7" target="pa-5nRJe8YoFxbNFvkeD-23" edge="1">
          <mxGeometry width="160" relative="1" as="geometry">
            <mxPoint x="84" y="-470" as="sourcePoint" />
            <mxPoint x="289" y="105" as="targetPoint" />
          </mxGeometry>
        </mxCell>
        <mxCell id="pa-5nRJe8YoFxbNFvkeD-44" value="" style="endArrow=open;endFill=1;endSize=12;html=1;rounded=0;entryX=0;entryY=0.5;entryDx=0;entryDy=0;exitX=0.5;exitY=0.5;exitDx=0;exitDy=0;exitPerimeter=0;" parent="1" source="pa-5nRJe8YoFxbNFvkeD-7" target="pa-5nRJe8YoFxbNFvkeD-29" edge="1">
          <mxGeometry width="160" relative="1" as="geometry">
            <mxPoint x="79" y="-105" as="sourcePoint" />
            <mxPoint x="284" y="-215" as="targetPoint" />
          </mxGeometry>
        </mxCell>
        <mxCell id="pa-5nRJe8YoFxbNFvkeD-45" value="" style="endArrow=open;endFill=1;endSize=12;html=1;rounded=0;entryX=0;entryY=0;entryDx=0;entryDy=0;exitX=0.5;exitY=0.5;exitDx=0;exitDy=0;exitPerimeter=0;" parent="1" source="pa-5nRJe8YoFxbNFvkeD-7" target="pa-5nRJe8YoFxbNFvkeD-28" edge="1">
          <mxGeometry width="160" relative="1" as="geometry">
            <mxPoint x="89" y="-95" as="sourcePoint" />
            <mxPoint x="294" y="-205" as="targetPoint" />
          </mxGeometry>
        </mxCell>
        <mxCell id="pa-5nRJe8YoFxbNFvkeD-46" value="" style="endArrow=open;endFill=1;endSize=12;html=1;rounded=0;entryX=1;entryY=0.5;entryDx=0;entryDy=0;exitX=0.5;exitY=0.5;exitDx=0;exitDy=0;exitPerimeter=0;" parent="1" source="pa-5nRJe8YoFxbNFvkeD-8" target="pa-5nRJe8YoFxbNFvkeD-30" edge="1">
          <mxGeometry width="160" relative="1" as="geometry">
            <mxPoint x="750" y="-885" as="sourcePoint" />
            <mxPoint x="955" y="-485" as="targetPoint" />
          </mxGeometry>
        </mxCell>
        <mxCell id="pa-5nRJe8YoFxbNFvkeD-47" value="" style="endArrow=open;endFill=1;endSize=12;html=1;rounded=0;entryX=1;entryY=0.5;entryDx=0;entryDy=0;exitX=0.5;exitY=0.5;exitDx=0;exitDy=0;exitPerimeter=0;" parent="1" source="pa-5nRJe8YoFxbNFvkeD-8" target="pa-5nRJe8YoFxbNFvkeD-27" edge="1">
          <mxGeometry width="160" relative="1" as="geometry">
            <mxPoint x="1250" y="-670" as="sourcePoint" />
            <mxPoint x="690" y="-825" as="targetPoint" />
          </mxGeometry>
        </mxCell>
        <mxCell id="pa-5nRJe8YoFxbNFvkeD-48" value="" style="endArrow=open;endFill=1;endSize=12;html=1;rounded=0;entryX=1;entryY=0.5;entryDx=0;entryDy=0;exitX=0.5;exitY=0.5;exitDx=0;exitDy=0;exitPerimeter=0;" parent="1" source="pa-5nRJe8YoFxbNFvkeD-10" target="pa-5nRJe8YoFxbNFvkeD-24" edge="1">
          <mxGeometry width="160" relative="1" as="geometry">
            <mxPoint x="1255" y="-660" as="sourcePoint" />
            <mxPoint x="690" y="-635" as="targetPoint" />
          </mxGeometry>
        </mxCell>
        <mxCell id="pa-5nRJe8YoFxbNFvkeD-49" value="" style="endArrow=open;endFill=1;endSize=12;html=1;rounded=0;entryX=0;entryY=0.5;entryDx=0;entryDy=0;exitX=0.5;exitY=0.5;exitDx=0;exitDy=0;exitPerimeter=0;" parent="1" source="pa-5nRJe8YoFxbNFvkeD-9" target="pa-5nRJe8YoFxbNFvkeD-28" edge="1">
          <mxGeometry width="160" relative="1" as="geometry">
            <mxPoint x="79" y="-105" as="sourcePoint" />
            <mxPoint x="284" y="-215" as="targetPoint" />
          </mxGeometry>
        </mxCell>
        <mxCell id="pa-5nRJe8YoFxbNFvkeD-52" value="" style="endArrow=open;endFill=1;endSize=12;html=1;rounded=0;entryX=1;entryY=0.5;entryDx=0;entryDy=0;exitX=0.5;exitY=0.5;exitDx=0;exitDy=0;exitPerimeter=0;" parent="1" source="pa-5nRJe8YoFxbNFvkeD-8" target="pa-5nRJe8YoFxbNFvkeD-19" edge="1">
          <mxGeometry width="160" relative="1" as="geometry">
            <mxPoint x="1168" y="-740" as="sourcePoint" />
            <mxPoint x="880" y="-642" as="targetPoint" />
          </mxGeometry>
        </mxCell>
        <mxCell id="pa-5nRJe8YoFxbNFvkeD-54" value="" style="endArrow=open;endFill=1;endSize=12;html=1;rounded=0;exitX=0.5;exitY=0.5;exitDx=0;exitDy=0;exitPerimeter=0;" parent="1" source="pa-5nRJe8YoFxbNFvkeD-10" target="pa-5nRJe8YoFxbNFvkeD-19" edge="1">
          <mxGeometry width="160" relative="1" as="geometry">
            <mxPoint x="1168" y="-740" as="sourcePoint" />
            <mxPoint x="424" y="-312" as="targetPoint" />
          </mxGeometry>
        </mxCell>
        <mxCell id="pa-5nRJe8YoFxbNFvkeD-55" value="" style="endArrow=open;endFill=1;endSize=12;html=1;rounded=0;entryX=0;entryY=0.5;entryDx=0;entryDy=0;exitX=0.5;exitY=0.5;exitDx=0;exitDy=0;exitPerimeter=0;" parent="1" source="pa-5nRJe8YoFxbNFvkeD-7" target="pa-5nRJe8YoFxbNFvkeD-19" edge="1">
          <mxGeometry width="160" relative="1" as="geometry">
            <mxPoint x="82" y="-100" as="sourcePoint" />
            <mxPoint x="284" y="-185" as="targetPoint" />
            <Array as="points">
              <mxPoint x="200" y="-230" />
            </Array>
          </mxGeometry>
        </mxCell>
        <mxCell id="pa-5nRJe8YoFxbNFvkeD-56" value="" style="endArrow=open;endFill=1;endSize=12;html=1;rounded=0;entryX=0.5;entryY=1;entryDx=0;entryDy=0;exitX=0.5;exitY=0.5;exitDx=0;exitDy=0;exitPerimeter=0;" parent="1" source="pa-5nRJe8YoFxbNFvkeD-9" target="pa-5nRJe8YoFxbNFvkeD-19" edge="1">
          <mxGeometry width="160" relative="1" as="geometry">
            <mxPoint x="92" y="-90" as="sourcePoint" />
            <mxPoint x="294" y="-175" as="targetPoint" />
            <Array as="points">
              <mxPoint x="250" y="180" />
              <mxPoint x="630" y="180" />
            </Array>
          </mxGeometry>
        </mxCell>
      </root>
    </mxGraphModel>
  </diagram>
</mxfile>
